***************************************************************

[IMG]http://www.hotimg.org/images/67363952943939111394.png[/IMG]

***************************************************************

[IMG]http://www.hotimg.org/images/43441034072064193729.jpg[/IMG]

***************************************************************

FILM TITLE: Friends with Benefits (2011)

***************************************************************

Genre:  Comedy | Romance  

Rated R for some violent content and brief sexuality

Release: 16 September 2011 (Sweden)

Director: Will Gluck

Writer: Keith Merryman (screenplay), David A. Newman (screenplay)

Stars:  Mila Kunis, Justin Timberlake and Patricia Clarkson

Country: USA

Language: English

Plot:
While trying to avoid the clichés of Hollywood romantic comedies, Dylan 
and Jamie soon discover however that adding the act of sex to their friendship 
does lead to complications.

IMDB Rating:  6.6/10 from 56,619 users   Metascore: 63/100
 
http://www.imdb.com/title/tt1632708/

****************************************************************

[URL=http://www.hotimg.org/viewer.php?file=52227367770423956253.png][IMG]http://www.hotimg.org/images/52227367770423956253_thumb.png[/IMG][/URL]
[URL=http://www.hotimg.org/viewer.php?file=85955707040205386567.png][IMG]http://www.hotimg.org/images/85955707040205386567_thumb.png[/IMG][/URL]
[URL=http://www.hotimg.org/viewer.php?file=86328350024415800943.png][IMG]http://www.hotimg.org/images/86328350024415800943_thumb.png[/IMG][/URL]
[URL=http://www.hotimg.org/viewer.php?file=25487053219085859048.png][IMG]http://www.hotimg.org/images/25487053219085859048_thumb.png[/IMG][/URL]

****************************************************************

General
Complete name                    : Friends With Benefits 2011 720p BDRip x264 ac3 (mp4) [GREYSHADOW].mp4
Format                           : MPEG-4
Format profile                   : Base Media
Codec ID                         : isom
File size                        : 3.55 GiB
Duration                         : 1h 49mn
Overall bit rate                 : 4641 Kbps
Encoded date                     : UTC 2012-02-18 13:06:38
Tagged date                      : UTC 2012-02-18 13:06:38

Video
ID                               : 1
Format                           : AVC
Format/Info                      : Advanced Video Codec
Format profile                   : High@L4.1
Format settings, CABAC           : Yes
Format settings, ReFrames        : 12 frames
Codec ID                         : avc1
Codec ID/Info                    : Advanced Video Coding
Duration                         : 1h 49mn
Bit rate                         : 4000 Kbps
Maximum bit rate                 : 27.1 Mbps
Width                            : 1280 pixels
Height                           : 528 pixels
Display aspect ratio             : 2.40:1
Frame rate mode                  : Constant
Frame rate                       : 23.976 fps
Color space                      : YUV
Chroma subsampling               : 4:2:0
Bit depth                        : 8 bits
Scan type                        : Progressive
Bits/(Pixel*Frame)               : 0.247
Stream size                      : 3.06 GiB (86%)
Title                            : AVC MPEG4 Video
Writing library                  : x264 core 120 r2164 da19765
Encoded date                     : UTC 2012-02-17 10:34:16
Tagged date                      : UTC 2012-02-18 13:08:46
Color primaries                  : BT.709-5, BT.1361, IEC 61966-2-4, SMPTE RP177
Transfer characteristics         : BT.709-5, BT.1361
Matrix coefficients              : BT.709-5, BT.1361, IEC 61966-2-4 709, SMPTE RP177

Audio
ID                               : 2
Format                           : AC-3
Format/Info                      : Audio Coding 3
Mode extension                   : CM (complete main)
Codec ID                         : ac-3
Duration                         : 1h 49mn
Bit rate mode                    : Constant
Bit rate                         : 640 Kbps
Channel(s)                       : 6 channels
Channel positions                : Front: L C R, Side: L R, LFE
Sampling rate                    : 48.0 KHz
Bit depth                        : 16 bits
Compression mode                 : Lossy
Stream size                      : 501 MiB (14%)
Title                            : AC3 5.1 640 kbps
Language                         : English
Encoded date                     : UTC 2012-02-18 13:08:24
Tagged date                      : UTC 2012-02-18 13:08:46

****************************************************************

Video Source: Friends With Benefits 2011 BluRay 1080p AVC DTS-HD MA5.1-CHDBits

Thanks: chdbits.org

****************************************************************

I provide a small sample, so please download this to check your 
compatibility first if you are unsure.

****************************************************************

Hash: 0191CF0EEC6B5E22F19A99E9DA0DE7CD427B8A46

Trackers:
.udp://tracker.1337x.org:80/announce

****************************************************************